<svg width="0" height="0" class="hidden">
  <symbol id="monkey-svgrepo-com" xmlns="http://www.w3.org/2000/svg" viewBox="0 0 72 72">
    <g id="color">
      <path fill="#A57939" stroke="none" d="M57.6434,22.3333c-1.2621-2.4047-3.4786-3.8513-5.0019-4.6098c-0.8214-0.4091-1.701-0.6661-2.5976-0.8618 c-3.0012-0.655-5.0846-1.976-6.1805-2.8259c-0.6987-0.5418-1.2036-1.3355-1.2808-2.2162c-0.1577-1.7996,1.3487-2.4576,4.1013-2.153 c2.379,0.2634,3.9377,2.1088,4.6551,3.1845c0.5031,0.7545,1.0912,1.5623,1.9154,1.9405c2.1921,1.006,2.375-2.0833,2.375-2.0833 l-1.625-1.25l-3.6667-3.625l-4-1.375L42.629,7.5326L40.6987,9.146l-0.7524,3.0917l3.0477,4.2744l4.586,2.0536l4.9687,1.8706 l2.714,2.5617l0.811,2.7936l-1.6911,1.7195l-2.6852,0.0135l-4.7662-1.8686l-5.156-1.0936l-3.04,1.3686L36.7752,26l0.5322-2.75 l-0.9697-1.1875h-2.5l-1.5625,1.3125l-2.053-2.125l-3.1345-1.0625l-4.5625,3.5l-1.375,4.2081l0.3593,3.0419l1.3547,3.6714 l2.1203,3.313l-0.8774,2.3787l-4.8032,5.4636L13,49l-5.1623,1.9591l-1.75,2.1034l1.0836,1.1518l6.5112-1.2146l6.8129-1.7512 l6.1772-1.4377L30.8377,44l1.5873-3.4379l2.8501,2.2726l2.0322,2.6019l-1.6731,4.8966l-1.4263,2.4495l-4.5071,1.0568l-2.4257,1.723 l1.0708,1.6953l4.1168,1.0547l3.5934-0.5919l5.0732,1.0085l5.2557-1.5553l1.8901-6.7363l0.2184-5.3079l5.413-3.3096l3.7368-6.0701 l0.5276-3.0092c0,0-0.7058-1.5485-1.8505-3.1884C59.9845,26.879,57.6434,22.3333,57.6434,22.3333z"></path>
      <path fill="#6A462F" stroke="none" d="M54.6573,41.1492l-0.3613,2.6424l2.2525,3.7501l6.6225,2.0833l0.5765,3.7083v5.3958l-2.1599,0.8542 l-2.5659-1.25l-0.3924-3.625c0,0-1.2916-0.7738-1.4696-0.8036c-0.178-0.0299-7.0721-3.738-7.0721-3.738 s-1.7917-2.125-1.4167-5.4583L54.6573,41.1492"></path>
      <polygon fill="#F4AA41" stroke="none" points="24.8377,28.375 29.0877,28.6852 30.2222,31.4375 28.9609,33.9488 28.5705,36.1286 23.7364,36.2071 22.7938,33.5812 21.4625,30.5404 22.6502,28.6852"></polygon>
    </g>
    <g id="hair"></g>
    <g id="skin"></g>
    <g id="skin-shadow"></g>
    <g id="line">
      <path fill="none" stroke="#000000" stroke-linecap="round" stroke-linejoin="round" stroke-miterlimit="10" stroke-width="2" d="M54.6151,13.002c-6.1534-10.1026-13.9396-5.7207-14.5736-2.4868c-0.5544,2.8279,0.462,6.2089,9.3384,8.579 c3.3116,0.8842,5.2159,2.6898,6.3066,4.5673c1.3045,2.2457-0.9063,4.9046-3.3693,4.081c-4.7351-1.5833-9.3588-5.0341-15.023-0.9092"></path>
      <path fill="none" stroke="#000000" stroke-linecap="round" stroke-linejoin="round" stroke-miterlimit="10" stroke-width="2" d="M34.042,32.7357C39,33,36.8383,23.0629,36.8383,23.0629c-0.505-0.7712-2.3383-1.8129-4.63,1.2288 c-1.0431-3.4879-5.0604-3.6762-5.0604-3.6762c-1.6104,0.8333-6.505,3.0095-5.505,9.0095"></path>
      <path fill="none" stroke="#000000" stroke-linecap="round" stroke-linejoin="round" stroke-miterlimit="10" stroke-width="2" d="M22.7938,33.5812c0,0-3.0389-3.7986,0.7597-4.5583s5.3181,0,5.3181,0s3.0389,0.7597,0,4.5583c0,0,1.1396,3.4188-2.659,3.4188 S22.7938,33.5812,22.7938,33.5812z"></path>
      <path fill="none" stroke="#000000" stroke-linecap="round" stroke-linejoin="round" stroke-miterlimit="10" stroke-width="2" d="M29.9796,43.7804l-3.307,6.0303c0,0-7.8859,1.8198-10.3123,2.4264c-1.8292,0.4573-5.3819,1.604-7.0202,2.1409 c-0.7166,0.2348-1.5108,0.2047-2.1688-0.1638C6.0479,53.5852,5.3163,51.4264,13,49c6.8465-2.162,11.75-7.5625,12.125-12"></path>
      <path fill="none" stroke="#000000" stroke-linecap="round" stroke-linejoin="round" stroke-miterlimit="10" stroke-width="2" d="M37.8949,34.9489c0,0,7.8859,7.8859,5.4595,11.5256c-1.7762,2.6643-4.5276,7.6041-5.8747,10.0602 C36.982,57.442,36.0326,58,34.9978,58h-5.0451c-2.6204,0-2.8634-3.9459-0.2518-4.1604c0.1675-0.0138,0.3409-0.0215,0.5201-0.0225 c1.1106-0.0067,4.1307-0.6062,4.5829-1.6207l3.091-6.9351c0,0-2.8949-4.2612-6.0661-4.8529"></path>
      <path fill="none" stroke="#000000" stroke-linecap="round" stroke-linejoin="round" stroke-miterlimit="10" stroke-width="2" d="M57.3063,33.1291c0,0,3.033,6.6727-9.0991,12.1322c0,0,0.1025,5.7474-1.303,11.0313c-0.2602,0.9781-1.2349,1.5893-2.2336,1.425 l-3.3373,0.0266"></path>
      <path fill="none" stroke="#000000" stroke-linecap="round" stroke-linejoin="round" stroke-miterlimit="10" stroke-width="2" d="M51,50c1,3,6.0327,4.2186,8,4l0.0675,2.7876c0.0321,1.3274,1.1556,2.3653,2.4814,2.2923l0.0125-0.0007 c0.9822-0.0541,2.0359-0.6738,2.1255-1.6535C64,54,63,50,63,50c-9.7057-1.8198-9.3333-7.1652-9.3333-7.1652"></path>
    </g>
  </symbol>
  <symbol xmlns="http://www.w3.org/2000/svg" fill="#5f1c1c" stroke="#5f1c1c" viewBox="0 0 512 512" id="vending-machine-svgrepo-com (3)">
    <g id="SVGRepo_bgCarrier" stroke-width="0"></g>
    <g id="SVGRepo_tracerCarrier" stroke-linecap="round" stroke-linejoin="round"></g>
    <g id="SVGRepo_iconCarrier">
      <path fill="#812a92" d="M100 29v454h312V29zm18 18h210v338H118zm226 16h50v66h-50zm18 18v30h14V81zm-203 7v23h-16v18h160v-18h-64V80l-16 6-6 25h-26V88zm194 55h32v18h-32zm-90 10.8c-5.4 0-10.1 3-12.8 6.7-2.9 4.9-4.5 9.6-4.1 14.5H143v18h160v-18h-23.1c.3-5.1-1.6-11-4.1-14.5-2.7-3.7-7.4-6.7-12.8-6.7zm90 21.2h32v18h-32zm-194 41v23h-16v18h160v-18h-24v-23h-24v23h-32v-31h-16v31h-32v-15zm8 61.4c-6.1 0-10.8 3.9-13.3 8-3.2 6.1-4 11.5-3.5 17.6H143v18h160v-18h-64v-23h-32v23h-23.2c.6-6-.7-13-3.5-17.6-2.5-4.1-7.2-8-13.3-8zM353 351h32v18h-32zm-235 52h210v62H118zm18 18v26h174v-26z"></path>
    </g>
  </symbol>
  <symbol fill="#b22ea1" version="1.2" baseProfile="tiny" xmlns="http://www.w3.org/2000/svg" overflow="inherit" stroke="#b22ea1" viewBox="0 0 50 50" id="university-svgrepo-com">
    <g id="SVGRepo_bgCarrier" stroke-width="0"></g>
    <g id="SVGRepo_tracerCarrier" stroke-linecap="round" stroke-linejoin="round"></g>
    <g id="SVGRepo_iconCarrier">
      <path d="M24.999 27.381c-5.406 0-9.999 1.572-12.999 4.036v4.583h26v-4.583c-3-2.464-7.594-4.036-13.001-4.036zm23.871-2.352l-23.934-11.029-23.924 11.029 3.988 1.825v2.807c-1 .207-1.003.731-1.003 1.354 0 .368.122.799.354 1.057l-1.368 2.928h4.88l-1.356-2.93c.228-.258.415-.638.415-1.006 0-.622-.922-1.197-.922-1.404v-2.337l5 2.246v-.199c3-2.609 8.271-4.265 13.998-4.265 5.729 0 11.002 1.656 14.002 4.265v.199l9.87-4.54z"></path>
    </g>
  </symbol>
  <symbol fill="#812a92" version="1.1" id="tattoo-machine-svgrepo-com" xmlns="http://www.w3.org/2000/svg" xmlns:xlink="http://www.w3.org/1999/xlink" xml:space="preserve" stroke="#812a92" stroke-width="1.83928" viewBox="0 0 459.82 459.82">
    <g id="SVGRepo_bgCarrier" stroke-width="0"></g>
    <g id="SVGRepo_tracerCarrier" stroke-linecap="round" stroke-linejoin="round"></g>
    <g id="SVGRepo_iconCarrier">
      <path d="M458.648,213.641l-53.128-53.128c1.471-4.246,4.284-13.429,5.426-24.395c1.9-18.255-1.774-33.442-10.608-44.271 c0.864-1.96,1.329-4.05,1.397-6.155l12.564-3.165l1.051,6.227c0.33,1.953,2.023,3.335,3.939,3.335c0.221,0,0.445-0.019,0.67-0.057 l28.453-4.803c2.179-0.368,3.646-2.432,3.279-4.61l-3.325-19.699c-0.177-1.046-0.762-1.979-1.626-2.594 c-0.865-0.614-1.939-0.859-2.984-0.685l-28.454,4.803c-1.046,0.177-1.979,0.762-2.594,1.626s-0.861,1.938-0.685,2.984l0.938,5.558 l-12.899,3.249c-1.347-2.756-3.458-5.229-6.49-7.004c-5.664-3.316-12.913-2.987-18.188,0.918c-4.711,3.488-6.936,8.79-6.735,14.015 l-9.028,2.275l1.955,7.758l9.301-2.344c0.703,1.21,1.554,2.356,2.589,3.392c1.378,1.378,2.946,2.443,4.613,3.234 c2.981,6.526-0.104,19.573-3.721,29.245l-53.308-53.308c-0.75-0.75-1.768-1.172-2.829-1.172s-2.078,0.422-2.829,1.172 L194.227,197.21l-15.745-15.745c-0.75-0.75-1.768-1.172-2.829-1.172s-2.078,0.422-2.829,1.172l-4.496,4.496l-4.283-4.284 l13.39-13.39c1.562-1.562,1.562-4.094,0-5.656l-12.818-12.818c-1.562-1.562-4.095-1.562-5.657,0l-32.438,32.438 c-1.562,1.562-1.562,4.095,0,5.656l12.818,12.818c0.781,0.781,1.805,1.172,2.829,1.172s2.047-0.391,2.829-1.172l13.39-13.39 l4.283,4.284l-4.496,4.496c-1.562,1.562-1.562,4.094,0,5.656l7.371,7.371l-24.255,24.256l-2.924-2.924 c-0.807-0.807-1.921-1.242-3.058-1.165l-16.651,0.956c-0.98,0.056-1.905,0.471-2.599,1.165l-67.491,67.49 c-0.694,0.693-1.108,1.619-1.165,2.599l-0.955,16.651c-0.065,1.139,0.359,2.251,1.165,3.058l3.45,3.45l-19.049,19.05 c-1.109,1.109-1.559,2.766-1.017,4.238c1.356,3.677,0.447,7.841-2.309,10.599c-2.689,2.688-6.617,3.621-10.247,2.434 c-1.836-0.602-3.836,0.196-4.758,1.893l-9.231,16.997c-0.846,1.557-0.566,3.485,0.687,4.737l2.406,2.406l-6.374,6.374 c-1.562,1.562-1.562,4.095,0,5.657h0c1.562,1.562,4.094,1.562,5.656,0l6.374-6.374l3.45,3.45c0.781,0.781,1.805,1.172,2.829,1.172 s2.047-0.391,2.829-1.172l50.107-50.107l3.415,3.415c0.785,0.785,1.856,1.233,2.966,1.205c0.042-0.001,0.084-0.003,0.126-0.006 l16.651-0.955c0.98-0.056,1.905-0.471,2.599-1.165l67.491-67.491c0.694-0.693,1.108-1.619,1.165-2.599l0.956-16.651 c0.065-1.139-0.359-2.251-1.165-3.058l-2.924-2.924l24.255-24.256l7.371,7.371c0.75,0.75,1.768,1.172,2.829,1.172 s2.078-0.422,2.829-1.172l14.649-14.649c1.562-1.562,1.562-4.094,0-5.656l-15.745-15.745l1.668-1.668l134.769,134.77 c0.75,0.75,1.768,1.172,2.829,1.172s2.078-0.422,2.829-1.172l116.67-116.671C460.21,217.736,460.21,215.203,458.648,213.641z M441.144,68.197l1.993,11.811l-20.565,3.471l-1.994-11.811L441.144,68.197z M142.17,192.24l-7.162-7.161l26.781-26.78l7.162,7.161 L142.17,192.24z M19.48,387.652l-6.572-6.571l6.367-11.725c5.498,0.717,11.05-1.117,15.069-5.136 c4.31-4.311,6.108-10.527,4.902-16.412l17.471-17.471l10.039,10.038L19.48,387.652z M158.929,276.455l-65.335,65.336l-13.34,0.766 l-25.716-25.717l0.765-13.34l65.336-65.335l13.339-0.766l25.716,25.716L158.929,276.455z M158.039,250.145l-11.09-11.09 l24.255-24.256l11.09,11.09L158.039,250.145z M198.151,230.432l-31.489-31.489l8.993-8.992l31.489,31.489L198.151,230.432z M379.124,79.085c1.672-1.672,3.869-2.508,6.065-2.508s4.394,0.836,6.065,2.508c3.345,3.345,3.345,8.787,0,12.132 c-3.344,3.344-8.787,3.344-12.131,0C375.78,87.872,375.78,82.429,379.124,79.085z M385.015,122.183 c2.196-8.264,2.797-15.136,1.819-20.546c2.994-0.296,5.914-1.415,8.417-3.332c13.03,17.688,7.368,44.149,3.895,55.834 l-18.637-18.637C381.672,132.664,383.532,127.767,385.015,122.183z M406.737,215.948l-68.112,68.112l-37.768-37.768l68.112-68.112 L406.737,215.948z M322.4,279.149l-4.282,4.282L301.487,266.8l4.282-4.282L322.4,279.149z M328.056,284.805l7.74,7.74 c0.75,0.75,1.768,1.172,2.829,1.172s2.078-0.422,2.829-1.172l73.769-73.77c1.562-1.562,1.562-4.095,0-5.656l-7.74-7.74l4.282-4.282 l12.757,12.757l-87.991,87.99l-12.757-12.757L328.056,284.805z M401.826,199.723l-16.631-16.631l4.283-4.282l16.631,16.631 L401.826,199.723z M379.538,177.435l-7.74-7.74c-0.75-0.75-1.768-1.172-2.829-1.172s-2.078,0.422-2.829,1.172l-73.769,73.77 c-1.562,1.562-1.562,4.095,0,5.656l7.74,7.74l-4.282,4.282l-29.083-29.083l4.282-4.282l7.74,7.74c0.75,0.75,1.768,1.172,2.829,1.172 s2.078-0.422,2.829-1.172l73.77-73.77c0.75-0.75,1.171-1.768,1.171-2.828s-0.421-2.078-1.171-2.828l-7.74-7.74l4.282-4.282 l29.083,29.083L379.538,177.435z M349.71,158.92l-68.113,68.112l-37.768-37.768l68.112-68.111L349.71,158.92z M265.372,222.122 l-4.282,4.282l-16.631-16.631l4.282-4.282L265.372,222.122z M344.798,142.695l-16.631-16.63l4.283-4.283l16.631,16.631 L344.798,142.695z M322.511,120.408l-7.74-7.74c-1.563-1.563-4.095-1.562-5.657,0l-73.769,73.769c-1.562,1.562-1.562,4.095,0,5.656 l7.74,7.74l-4.282,4.282l-20.084-20.084l87.991-87.991l20.084,20.084L322.511,120.408z M339.149,327.483l-131.941-131.94 l5.854-5.854l120.64,120.641c0.75,0.75,1.768,1.172,2.829,1.172s2.078-0.422,2.829-1.172l93.647-93.647 c1.562-1.562,1.562-4.095,0-5.656L312.366,90.385l5.856-5.856l131.941,131.94L339.149,327.483z"></path>
    </g>
  </symbol>
</svg>